<svg id="Layer_1" data-name="Layer 1" xmlns="http://www.w3.org/2000/svg" viewBox="0 0 284.21 35.28"><defs><style>.cls-1{fill:#717070;}</style></defs><path class="cls-1" d="M2.16,18.36c1.1-.36,3.69-1.46,4.75-2,.22-.14.31-.09.4-.05a1.09,1.09,0,0,1,.39.57c0,.62-.13,1.46-.13,1.9,0,.08.18.39.31.26a10,10,0,0,1,5.94-2.55,5.17,5.17,0,0,1,3.21.92A4.79,4.79,0,0,1,18.44,19c0,.13.26.17.35.13a20.3,20.3,0,0,1,2.86-1.85,7,7,0,0,1,3-.79,4.76,4.76,0,0,1,3.78,1.54,6.4,6.4,0,0,1,1.68,4.44c.08,1.46.17,6.25.22,9.07a1.84,1.84,0,0,0,1.54,1.76c.57.17.88.44.88.7s-.44.57-1.24.57-2.33-.17-3.52-.17c-1.49,0-2.59.13-3.6.13-.84,0-1.1-.35-1.1-.66s.44-.48.92-.66c1.14-.35,1.32-.75,1.36-2.46.05-1.15,0-6.21,0-7.66a4.78,4.78,0,0,0-.62-2.46,3.06,3.06,0,0,0-2.77-1.46,3.93,3.93,0,0,0-2.73,1A2.39,2.39,0,0,0,19,21.52c0,.31,0,8.54,0,9.51.14,1.41.31,1.8,1.85,2.24.49.14.93.36.93.67s-.44.61-1.15.61c-1,0-2.95-.13-4-.13s-2.68.09-3.61.09c-1.1,0-1.27-.31-1.27-.66,0-.14.31-.44.88-.62,1.19-.35,1.58-.79,1.58-2.38l0-7.56a4.5,4.5,0,0,0-.53-2.78A3.4,3.4,0,0,0,11,19.15a4.14,4.14,0,0,0-2.69,1,1.46,1.46,0,0,0-.39,1c0,2.87,0,6.83,0,10.17,0,.92.36,1.5,1.54,1.89.84.27,1.06.44,1.06.8s-.57.57-1.19.57c-.17,0-2.64-.09-4.31-.09-1.45,0-2.77.17-3.7.17C.62,34.59,0,34.42,0,34s.31-.53,1.1-.75c1.54-.35,1.67-.92,1.85-2.81.09-1.19.22-4.58.22-8.45,0-.4,0-.79-.27-1-1-1.06-1.58-1.59-1.58-1.85S1.85,18.44,2.16,18.36Z"/><path class="cls-1" d="M47.57,18.88a6.13,6.13,0,0,1,1,3.79c0,1.72-.17,7-.17,7.44A1.63,1.63,0,0,0,50,31.87a9.79,9.79,0,0,0,1.54-.53c.13-.09.17-.05.26,0a1.72,1.72,0,0,1,.13.62c0,.83-2.07,3-4.53,3a3.2,3.2,0,0,1-3.3-2.11c0-.18-.31-.27-.4-.18a20,20,0,0,1-3.47,1.85,6.8,6.8,0,0,1-1.94.35c-1.63,0-3.39-2-3.39-4.44a4.11,4.11,0,0,1,.79-2.25,3.53,3.53,0,0,1,1.59-1.05c1-.4,5-1.5,6-1.81.53-.17.8-.48.8-.66,0-.39.13-2.81.08-3.38a3,3,0,0,0-2.94-2.82,2.46,2.46,0,0,0-1.41.31c-.18.08-.27.52-.27,2a.59.59,0,0,1-.17.4A22.19,22.19,0,0,1,35.46,23a.71.71,0,0,1-.57-.62c0-1.28,1-2.46,3.7-4.22A11,11,0,0,1,43,16.51,5.14,5.14,0,0,1,47.57,18.88Zm-4.1,12.85a1.54,1.54,0,0,0,.36-.83c.08-.62.17-2.47.17-3.92,0-.17-.17-.44-.31-.44a10.42,10.42,0,0,0-3.56,1.15c-.53.39-.79.61-.79,1.76a2.71,2.71,0,0,0,2.42,2.81A4.43,4.43,0,0,0,43.47,31.73Z"/><path class="cls-1" d="M66.75,17.12c2.64,0,5.19-.48,6.38-.48a.36.36,0,0,1,.4.35c0,.53-.75,1-.93,1.06a12,12,0,0,0-5.45,2.42A14.42,14.42,0,0,0,64.51,23c-.05.09-.09.27-.05.31a103.58,103.58,0,0,0,6.65,8.45,5.62,5.62,0,0,0,2.68,1.49c.71.22,1.1.53,1.1.71,0,.53-.53.7-1.36.7-1.06,0-4-.26-6.25-.22l-2.11,0c-.49,0-1.15-.13-1.15-.62,0-.26.22-.44,1-.66s.88-.57.57-1.06c-1.1-1.58-2.2-2.86-4.27-5.63-.44-.57-.66-.88-.83-.88s-.18.22-.22.4a28.64,28.64,0,0,0,0,5.54c.13.84.31,1.32,1.54,1.63.49.13.93.44.93.66,0,.57-.71.66-1.19.66-1.1,0-3.08-.13-4.18-.13-1.54,0-3.44.17-4,.17-.92,0-1.23-.21-1.23-.57s.7-.61,1.28-.79c1.32-.4,1.71-.79,1.84-2,.09-.84.31-7.74.31-13.51S55.44,9.25,55.31,8C55.26,7.66,55,7.4,54,6.78a1.23,1.23,0,0,1-.66-.92c0-.13.26-.35.66-.44a26.09,26.09,0,0,0,5.19-1.67,2.83,2.83,0,0,1,.92-.4c.14,0,.44.4.4.57-.22,1.28-.4,12.06-.4,16.37a29.52,29.52,0,0,0,.14,4.18c0,.22.13.27.35.27s.39-.22.7-.49a61.24,61.24,0,0,0,4.84-4.88c.18-.22.31-.75-1.18-1-.62-.14-.93-.4-.93-.62s.44-.62.88-.62Z"/><path class="cls-1" d="M88.44,18.36a5.33,5.33,0,0,1,1.67,3.87c0,.31-.44,1.06-1,1.06h-9.6a.49.49,0,0,0-.48.3,5.57,5.57,0,0,0-.18,1.59,8.32,8.32,0,0,0,1.37,4.09,6.17,6.17,0,0,0,4.88,2.2c1.85,0,3.13-.44,4-1.54.18-.26.4-.53.57-.53s.4.31.4.57a2.41,2.41,0,0,1-.35,1.1,7.8,7.8,0,0,1-7,3.83c-5.06,0-8.14-3.83-8.14-8.84a9.54,9.54,0,0,1,5.58-8.72,8.85,8.85,0,0,1,3.61-.83A6.82,6.82,0,0,1,88.44,18.36Zm-9.11,3.12a.37.37,0,0,0,.31.44c1.15,0,2.51,0,4.71,0a1.44,1.44,0,0,0,1.54-1.5,2.86,2.86,0,0,0-2.46-2.68C81.58,17.74,79.86,19.46,79.33,21.48Z"/><path class="cls-1" d="M92.3,17.76C92.3,7.06,99.12,0,109.58,0c7.93,0,13.78,3.55,15.65,12.19a.46.46,0,0,1-.48.58H117a.54.54,0,0,1-.58-.48c-.86-3.65-3.12-5.57-7-5.57-5.14,0-7.92,4-7.92,10.85s2.83,10.94,8,10.94c3.94,0,6.2-2,7-5.9a.55.55,0,0,1,.57-.48H125c.34,0,.53.24.44.62-1.88,8.69-7.49,12.48-15.75,12.48C99.07,35.23,92.3,27.89,92.3,17.76Z"/><path class="cls-1" d="M127.25,17.71C127.25,7.06,134.06,0,144.77,0c10.56,0,17.57,6.86,17.57,17.71,0,10.13-6.91,17.52-17.57,17.52S127.25,27.89,127.25,17.71Zm25.82,0c0-6.67-2.78-11-8.3-11s-8.31,4.13-8.31,11c0,6.63,2.93,10.8,8.36,10.8S153.07,24.39,153.07,17.71Z"/><path class="cls-1" d="M172.7,33.89a.48.48,0,0,1-.52.53h-6.82a.46.46,0,0,1-.53-.53L165,17.43l-.19-16.09c0-.38.19-.52.53-.52h10.7a.57.57,0,0,1,.58.43l8,21.89L192,1.25a.57.57,0,0,1,.58-.43H202.9c.33,0,.53.14.53.52l-.24,16.09.24,16.46a.47.47,0,0,1-.53.53h-8a.48.48,0,0,1-.53-.53V20.35l.29-7.82L187.44,34a.58.58,0,0,1-.58.43h-6a.56.56,0,0,1-.57-.43l-8-21.84.33,8.2Z"/><path class="cls-1" d="M215.86,33.89a.47.47,0,0,1-.53.53h-8a.46.46,0,0,1-.53-.53l.24-16.13-.24-16.42c0-.38.19-.52.53-.52h8c.33,0,.53.14.53.52l-.24,16.42Z"/><path class="cls-1" d="M218.64,17.76C218.64,7.06,225.46,0,235.92,0c7.92,0,13.78,3.55,15.65,12.19a.46.46,0,0,1-.48.58h-7.73a.54.54,0,0,1-.58-.48c-.86-3.65-3.12-5.57-7-5.57-5.13,0-7.92,4-7.92,10.85s2.84,10.94,8,10.94c3.94,0,6.19-2,7-5.9a.56.56,0,0,1,.58-.48h7.87c.34,0,.53.24.43.62-1.87,8.69-7.49,12.48-15.74,12.48C225.41,35.23,218.64,27.89,218.64,17.76Z"/><path class="cls-1" d="M253.49,23.81c-.05-.34.14-.53.48-.53h8.11a.5.5,0,0,1,.53.48c.57,3.27,2.45,5,6.81,5,3.65,0,5.72-1,5.72-3.45,0-6.43-21-1.06-21-14.69,0-6.43,4.9-10.61,14-10.61,8,0,13.68,2.93,14.88,10.13.05.38-.14.58-.48.58h-8.11a.5.5,0,0,1-.53-.49c-.43-2.35-2.45-3.64-5.86-3.64-2.88,0-5,.91-5,3.12,0,6.05,21.17,1,21.17,14.35,0,7.2-5.62,11.23-14.93,11.23C260.16,35.28,254.25,31.39,253.49,23.81Z"/></svg>